<?xml version="1.0" standalone="no"?>
<svg viewBox="0 0 800 600" version="1.1" xmlns="http://www.w3.org/2000/svg" xmlns:xlink="http://www.w3.org/1999/xlink" stroke-linecap="round" stroke-linejoin="round" fill-rule="evenodd" xml:space="preserve" >
<defs >
<clipPath id="clipId0" >
<path d="M0,600 800,600 800,0 0,0 z" />
</clipPath>
</defs>
<g clip-path="url(#clipId0)" fill="none" stroke="rgb(0,0,0)" stroke-width="0.1" />
<g clip-path="url(#clipId0)" fill="none" stroke="rgb(0,0,0)" stroke-width="0.25" >
<polyline points="727.111,124.471 789.882,124.471 783.529,225.927 748.227,225.927 748.227,211.489 727.111,211.489 727.111,124.471 " />
<polyline points="610.091,225.927 724.765,225.927 724.765,237.659 748.227,237.659 748.227,225.927 783.529,225.927 778.524,305.659 610.091,305.659 610.091,225.927 " />
<polyline points="610.091,305.659 610.091,383.768 771.151,383.768 778.524,305.659 610.091,305.659 610.091,383.768 " />
<polyline points="610.091,383.768 610.091,466.746 745.538,457.732 756.617,451.027 765.067,435.202 771.151,383.768 610.091,383.768 " />
<polyline points="108.55,298.378 542.014,298.378 542.014,225.927 610.091,225.927 610.091,466.746 108.55,482.434 108.55,443.922 129.434,443.923 129.434,420.461 108.55,420.461 108.55,298.378 " />
<polyline points="108.55,328.544 16.2493,328.544 16.2493,482.468 108.55,482.434 108.55,443.922 105.971,443.923 105.971,420.461 108.55,420.461 108.55,328.544 " />
<polyline points="335.441,237.659 438.315,237.659 438.315,259.703 362.9,259.703 362.9,298.378 335.441,298.378 335.441,237.659 " />
<polyline points="16.2493,237.659 108.531,237.659 108.535,222.062 152.896,222.06 152.897,236.241 152.897,298.378 108.55,298.378 108.55,328.544 16.2493,328.544 16.2493,237.659 " />
<polyline points="152.897,236.241 335.441,236.241 335.441,237.659 335.441,298.378 152.897,298.378 152.897,236.241 " />
<polyline points="364.962,124.759 438.315,124.759 438.315,237.659 364.962,237.659 364.962,124.759 " />
<polyline points="438.315,124.471 520.176,124.471 520.176,214.196 518.5,214.196 518.5,237.659 542.014,237.659 542.014,298.378 438.315,298.378 438.315,124.471 " />
<polyline points="362.9,259.703 438.315,259.703 438.315,298.378 362.9,298.378 362.9,259.703 " />
<polyline points="520.176,124.471 574.127,124.471 574.127,225.927 542.014,225.927 541.963,214.196 520.176,214.196 520.176,124.471 " />
<polyline points="574.127,124.471 727.111,124.471 727.111,211.489 724.765,211.489 724.765,225.927 574.127,225.927 574.127,124.471 " />
<polyline points="313.827,443.923 337.29,443.923 337.29,420.461 313.827,420.461 313.827,443.923 " />
<polyline points="518.552,443.923 542.014,443.923 542.014,420.461 518.552,420.461 518.552,443.923 " />
<polyline points="399.05,381.6 378.423,381.6 378.423,340.348 399.05,340.348 399.05,381.6 " />
<polyline points="375.845,381.6 355.218,381.6 355.218,340.348 375.845,340.348 375.845,381.6 " />
<polyline points="484.134,381.6 463.507,381.6 463.507,340.348 484.134,340.348 484.134,381.6 " />
<polyline points="460.929,381.6 440.303,381.6 440.303,340.348 460.929,340.348 460.929,381.6 " />
<polyline points="380.172,448.151 380.172,427.525 421.425,427.525 421.425,448.151 380.172,448.151 " />
<polyline points="380.172,424.946 380.172,404.32 421.425,404.32 421.425,424.946 380.172,424.946 " />
<polyline points="424.004,448.151 424.004,427.525 465.256,427.525 465.256,448.151 424.004,448.151 " />
<polyline points="424.004,424.946 424.004,404.32 465.256,404.32 465.256,424.946 424.004,424.946 " />
<polyline points="467.835,448.151 467.835,427.525 509.088,427.525 509.088,448.151 467.835,448.151 " />
<polyline points="467.835,424.946 467.835,404.32 509.088,404.32 509.088,424.946 467.835,424.946 " />
<polyline points="377.594,446.862 356.968,446.862 356.968,405.609 377.594,405.609 377.594,446.862 " />
<polyline points="44.1514,364.426 77.8614,364.426 77.8614,444.869 44.1514,444.869 44.1514,364.426 " />
<polyline points="108.535,222.062 103.378,222.062 103.315,232.632 11.0926,232.632 11.0926,482.47 16.2493,482.468 16.2493,328.544 108.55,328.544 108.55,323.387 16.2493,323.387 16.2493,237.659 108.531,237.659 108.535,222.062 " />
<polyline points="518.5,216.159 542.014,216.159 542.014,239.622 518.5,239.622 518.5,216.159 " />
<polyline points="610.091,225.927 723.202,225.927 723.202,231.084 610.091,231.084 610.091,225.927 " />
<polyline points="750.021,225.927 783.529,225.927 783.217,231.075 749.892,231.075 750.021,225.927 " />
<polyline points="724.765,211.489 748.227,211.489 748.227,237.659 724.765,237.659 724.765,211.489 " />
<polyline points="105.971,420.461 129.434,420.461 129.434,443.923 105.971,443.923 105.971,420.461 " />
<polyline points="313.827,420.461 337.29,420.461 337.29,443.923 313.827,443.923 313.827,420.461 " />
<polyline points="518.552,420.461 542.014,420.461 542.014,443.923 518.552,443.923 518.552,420.461 " />
<polyline points="719.75,420.461 743.212,420.461 743.212,443.923 719.75,443.923 719.75,420.461 " />
<polyline points="588.138,407.083 588.138,319.059 337.974,319.059 337.974,334.76 337.974,398.798 342.76,398.798 342.76,466.511 514.172,461.811 514.172,407.083 588.138,407.083 " />
<polyline points="329.768,298.378 329.768,236.241 158.053,236.241 158.053,298.378 329.768,298.378 " />
<polyline points="152.896,298.378 152.896,222.062 108.535,222.062 108.531,237.659 16.2493,237.659 16.2493,323.387 108.55,323.387 108.55,298.378 152.896,298.378 " />
<polyline points="108.55,420.461 108.55,328.544 16.2493,328.544 16.2493,477.277 108.55,477.277 108.55,443.923 105.971,443.923 105.971,420.461 108.55,420.461 " />
<polyline points="760.55,432.714 765.82,383.768 610.091,383.768 610.091,461.589 745.338,452.579 752.509,447.911 760.55,432.714 " />
<polyline points="766.681,378.611 774.265,305.705 610.091,305.705 610.091,378.611 766.681,378.611 " />
<polyline points="774.455,300.502 778.06,231.075 748.227,231.075 748.227,237.659 724.765,237.659 724.765,231.084 610.091,231.084 610.091,300.502 774.455,300.502 " />
<polyline points="778.372,225.927 784.725,124.471 579.284,124.471 579.284,225.927 610.091,225.927 724.765,225.927 724.765,211.489 727.111,211.489 748.227,211.489 748.227,225.927 778.372,225.927 " />
<polyline points="574.127,225.927 574.127,124.471 524.835,124.471 524.835,214.196 542.014,214.196 542.014,225.914 574.127,225.927 " />
<polyline points="518.5,237.659 518.5,214.196 520.176,214.196 520.176,124.471 443.472,124.471 443.472,298.378 542.014,298.378 542.014,237.659 518.5,237.659 " />
<polyline points="771.151,383.768 778.524,305.659 783.529,225.927 792.157,114.518 359.82,114.518 359.82,232.244 159.219,232.244 159.219,219.414 101.854,219.092 101.791,230.488 7.84314,230.488 7.84314,485.482 108.55,482.434 610.091,466.746 745.538,457.732 756.617,451.027 765.067,435.202 771.151,383.768 " />
<polyline points="525.302,324.381 525.302,360.478 543.35,360.478 543.35,324.381 525.302,324.381 " />
<polyline points="545.929,360.478 545.929,324.381 563.977,324.381 563.977,360.478 545.929,360.478 " />
<polyline points="525.302,363.056 525.302,399.152 543.35,399.152 543.35,363.056 525.302,363.056 " />
<polyline points="545.929,399.152 545.929,363.056 563.977,363.056 563.977,399.152 545.929,399.152 " />
<polyline points="364.962,232.502 364.962,124.471 438.315,124.471 438.315,232.502 417.689,232.502 417.689,237.659 438.315,237.659 438.315,259.703 417.689,259.703 417.689,264.86 438.315,264.86 438.315,293.221 367.933,293.221 367.933,264.86 395.902,264.86 395.902,259.703 362.9,259.703 362.9,298.378 443.472,298.378 443.472,124.471 520.176,124.471 520.176,215.264 525.333,215.264 524.835,124.471 574.127,124.471 574.127,225.927 579.284,225.927 579.284,124.471 789.882,124.471 789.882,119.314 359.82,117.797 359.82,232.244 158.197,232.244 158.197,222.384 152.896,222.06 152.897,298.378 158.053,298.378 158.053,236.241 329.768,236.241 329.768,298.378 335.441,298.378 335.441,237.659 395.902,237.659 395.902,232.502 364.962,232.502 " />
</g>
<g clip-path="url(#clipId0)" fill="rgb(0,0,0)" stroke="rgb(0,0,0)" stroke-width="0" >
<text transform="matrix(6.76805 0 -0 6.76805 47.7518 379.514)" font-family="Arial,'sans-serif'" font-size="1.39636" >M01</text>
<text transform="matrix(9.02407 0 -0 9.02407 19.8155 341.49)" font-family="Arial,'sans-serif'" font-size="1.39636" >R03</text>
<text transform="matrix(6.76805 0 -0 6.76805 464.456 350.002)" font-family="Arial,'sans-serif'" font-size="1.39636" >M05</text>
<text transform="matrix(5.07604 0 -0 5.07604 526.906 335.088)" font-family="Arial,'sans-serif'" font-size="1.39636" >M06</text>
<text transform="matrix(5.07604 0 -0 5.07604 546.725 334.036)" font-family="Arial,'sans-serif'" font-size="1.39636" >M07</text>
<text transform="matrix(5.07604 0 -0 5.07604 527 373.798)" font-family="Arial,'sans-serif'" font-size="1.39636" >M08</text>
<text transform="matrix(5.07604 0 -0 5.07604 547.515 373.91)" font-family="Arial,'sans-serif'" font-size="1.39636" >M09</text>
<text transform="matrix(6.76805 0 -0 6.76805 381.177 413.974)" font-family="Arial,'sans-serif'" font-size="1.39636" >M11</text>
<text transform="matrix(6.76805 0 -0 6.76805 424.968 413.974)" font-family="Arial,'sans-serif'" font-size="1.39636" >M12</text>
<text transform="matrix(6.76805 0 -0 6.76805 468.935 413.974)" font-family="Arial,'sans-serif'" font-size="1.39636" >M13</text>
<text transform="matrix(6.76805 0 -0 6.76805 469.023 438.952)" font-family="Arial,'sans-serif'" font-size="1.39636" >M16</text>
<text transform="matrix(9.02407 0 -0 9.02407 19.8155 253.48)" font-family="Arial,'sans-serif'" font-size="1.39636" >R01</text>
<text transform="matrix(9.02407 0 -0 9.02407 162.051 254.763)" font-family="Arial,'sans-serif'" font-size="1.39636" >R02</text>
<text transform="matrix(9.02407 0 -0 9.02407 343.578 333.718)" font-family="Arial,'sans-serif'" font-size="1.39636" >R00</text>
<text transform="matrix(9.02407 0 -0 9.02407 451.838 143.177)" font-family="Arial,'sans-serif'" font-size="1.39636" >R04</text>
<text transform="matrix(9.02407 0 -0 9.02407 534.028 141.841)" font-family="Arial,'sans-serif'" font-size="1.39636" >R05</text>
<text transform="matrix(9.02407 0 -0 9.02407 589.489 142.509)" font-family="Arial,'sans-serif'" font-size="1.39636" >R06</text>
<text transform="matrix(9.02407 0 -0 9.02407 618.221 249.422)" font-family="Arial,'sans-serif'" font-size="1.39636" >R07</text>
<text transform="matrix(9.02407 0 -0 9.02407 617.553 325.597)" font-family="Arial,'sans-serif'" font-size="1.39636" >R08</text>
<text transform="matrix(9.02407 0 -0 9.02407 618.221 399.768)" font-family="Arial,'sans-serif'" font-size="1.39636" >R09</text>
<text transform="matrix(4.14424e-016 -6.76805 6.76805 4.14424e-016 371.173 435.746)" font-family="Arial,'sans-serif'" font-size="1.39636" >M10</text>
<text transform="matrix(-1.0369e-015 5.64463 -5.64463 -1.0369e-015 363.775 354.532)" font-family="Arial,'sans-serif'" font-size="1.39636" >M02</text>
<text transform="matrix(4.14424e-016 -6.76805 6.76805 4.14424e-016 392.911 370.778)" font-family="Arial,'sans-serif'" font-size="1.39636" >M03</text>
<text transform="matrix(6.76805 0 -0 6.76805 392.271 440.637)" font-family="Arial,'sans-serif'" font-size="1.39636" >M14</text>
<text transform="matrix(6.76805 0 -0 6.76805 435.114 440.637)" font-family="Arial,'sans-serif'" font-size="1.39636" >M15</text>
<text transform="matrix(-1.0369e-015 5.64463 -5.64463 -1.0369e-015 447.858 352.49)" font-family="Arial,'sans-serif'" font-size="1.39636" >M04</text>
</g>
<g clip-path="url(#clipId0)" fill="none" stroke="rgb(0,0,0)" stroke-width="0.25" >
<polyline points="364.962,124.759 438.315,124.759 438.315,232.502 364.962,232.502 364.962,124.759 " />
<polyline points="367.933,264.86 438.315,264.86 438.315,293.221 367.933,293.221 367.933,264.86 " />
</g>
<g clip-path="url(#clipId0)" fill="rgb(0,0,0)" stroke="rgb(0,0,0)" stroke-width="0" >
<text transform="matrix(-1.0369e-015 5.64463 -5.64463 -1.0369e-015 400.405 272.248)" font-family="Arial,'sans-serif'" font-size="1.39636" >T01</text>
<text transform="matrix(-1.0369e-015 5.64463 -5.64463 -1.0369e-015 399.153 182.454)" font-family="Arial,'sans-serif'" font-size="1.39636" >T02</text>
</g>
</svg>
