<?xml version="1.0" encoding="utf-8"?>
<!-- Generator: Adobe Illustrator 25.3.1, SVG Export Plug-In . SVG Version: 6.00 Build 0)  -->
<svg version="1.1" xmlns="http://www.w3.org/2000/svg" xmlns:xlink="http://www.w3.org/1999/xlink" x="0px" y="0px"
	 viewBox="0 0 9524.2 4891.2" style="enable-background:new 0 0 9524.2 4891.2;" xml:space="preserve">
<style type="text/css">
	.st0{display:none;}
	.st1{display:inline;}
	.st2{fill:none;stroke:#ADADAD;stroke-width:0.7087;stroke-linecap:round;stroke-linejoin:round;stroke-miterlimit:10;}
	.st3{fill:none;stroke:#FF0000;stroke-width:0.7087;stroke-linecap:round;stroke-linejoin:round;stroke-miterlimit:10;}
	.st4{fill:none;stroke:#CC00CC;stroke-width:0.7087;stroke-linecap:round;stroke-linejoin:round;stroke-miterlimit:10;}
	.st5{fill:none;stroke:#00FF00;stroke-width:0.7087;stroke-linecap:round;stroke-linejoin:round;stroke-miterlimit:10;}
	.st6{fill:none;stroke:#FF7F00;stroke-width:0.7087;stroke-linecap:round;stroke-linejoin:round;stroke-miterlimit:10;}
	.st7{fill:none;stroke:#0000FF;stroke-width:0.7087;stroke-linecap:round;stroke-linejoin:round;stroke-miterlimit:10;}
	.st8{fill:none;stroke:#00CC99;stroke-width:0.7087;stroke-linecap:round;stroke-linejoin:round;stroke-miterlimit:10;}
	.st9{fill:none;stroke:#FF9F7F;stroke-width:0.7087;stroke-linecap:round;stroke-linejoin:round;stroke-miterlimit:10;}
	.st10{fill:none;stroke:#00FFFF;stroke-width:0.7087;stroke-linecap:round;stroke-linejoin:round;stroke-miterlimit:10;}
	.st11{fill:none;stroke:#000000;stroke-width:2;stroke-miterlimit:10;}
	.st12{fill:none;stroke:#000000;stroke-width:0.7087;stroke-linecap:round;stroke-linejoin:round;stroke-miterlimit:10;}
	.st13{fill:none;stroke:#FF00FF;stroke-width:0.7087;stroke-linecap:round;stroke-linejoin:round;stroke-miterlimit:10;}
</style>
<g id="Border" class="st0">
	<g id="LWPOLYLINE" class="st1">
		<rect x="275.9" y="4.3" class="st2" width="9077.3" height="4723.8"/>
	</g>
</g>
<g id="PassiveAntenna" class="st0">
	<g id="CIRCLE" class="st1">
		<circle class="st3" cx="1693.4" cy="1224.3" r="19.8"/>
	</g>
	<g id="CIRCLE_1_" class="st1">
		<circle class="st3" cx="1861.7" cy="1224.3" r="19.8"/>
	</g>
	<g id="LINE" class="st1">
		<line class="st3" x1="1693.4" y1="1224.3" x2="1693.4" y2="1366"/>
	</g>
	<g id="LINE_1_" class="st1">
		<line class="st3" x1="1861.7" y1="1224.3" x2="1861.7" y2="1366"/>
	</g>
	<g id="CIRCLE_2_" class="st1">
		<circle class="st3" cx="1861.7" cy="2331.2" r="19.8"/>
	</g>
	<g id="CIRCLE_3_" class="st1">
		<circle class="st3" cx="1693.4" cy="2331.2" r="19.8"/>
	</g>
	<g id="LINE_2_" class="st1">
		<line class="st3" x1="1861.7" y1="2331.2" x2="1861.7" y2="2189.4"/>
	</g>
	<g id="LINE_3_" class="st1">
		<line class="st3" x1="1693.4" y1="2331.2" x2="1693.4" y2="2189.4"/>
	</g>
	<g id="CIRCLE_4_" class="st1">
		<circle class="st3" cx="6846" cy="1164.6" r="19.8"/>
	</g>
	<g id="LINE_4_" class="st1">
		<line class="st3" x1="6846" y1="1164.6" x2="6846" y2="1306.4"/>
	</g>
</g>
<g id="PassiveReader" class="st0">
	<g id="CIRCLE_5_" class="st1">
		<circle class="st4" cx="1720.8" cy="2042" r="28.3"/>
	</g>
</g>
<g id="IRZone" class="st0">
	<g id="LWPOLYLINE_1_" class="st1">
		<polyline class="st5" points="3370,2305.9 4560.7,2305.9 4560.7,3648.1 3370,3648.1 3370,2305.9 		"/>
	</g>
	<g id="LWPOLYLINE_2_" class="st1">
		<polyline class="st5" points="1541.7,3648.1 2963.8,3648.1 2963.8,4285 1541.7,4329.5 1541.7,3648.1 		"/>
	</g>
	<g id="LWPOLYLINE_3_" class="st1">
		<rect x="1541.7" y="2305.9" class="st5" width="1828.4" height="1342.2"/>
	</g>
	<g id="LWPOLYLINE_4_" class="st1">
		<polyline class="st5" points="2963.8,3648.1 5449.1,3648.1 5449.1,4207.3 2963.8,4285 2963.8,3648.1 		"/>
	</g>
	<g id="LWPOLYLINE_5_" class="st1">
		<polyline class="st5" points="7055.7,1509.4 8962.5,1509.4 8907.5,2386 7055.7,2386 7055.7,1509.4 		"/>
	</g>
	<g id="LWPOLYLINE_6_" class="st1">
		<polyline class="st5" points="7055.7,2386 8907.5,2386 8826.4,3244.7 7055.7,3244.7 7055.7,2386 		"/>
	</g>
	<g id="LWPOLYLINE_7_" class="st1">
		<polyline class="st5" points="7055.7,3244.7 8826.4,3244.7 8759.5,3810.2 8666.6,3984.2 8544.8,4057.9 7055.7,4157 7055.7,3244.7 
					"/>
	</g>
	<g id="LWPOLYLINE_8_" class="st1">
		<rect x="6067.2" y="394" class="st5" width="593.1" height="1115.4"/>
	</g>
	<g id="LWPOLYLINE_9_" class="st1">
		<polyline class="st5" points="5167.2,394 6067.2,394 6067.2,1509.4 6307.3,1509.4 6307.3,2305.9 5167.2,2305.9 5167.2,394 		"/>
	</g>
	<g id="LWPOLYLINE_10_" class="st1">
		<polyline class="st5" points="4360.7,824.8 4360.7,1638.4 4036.1,1638.4 4036.1,2305.9 5167.2,2305.9 5167.2,824.8 4360.7,824.8 
					"/>
	</g>
	<g id="LWPOLYLINE_11_" class="st1">
		<rect x="4560.7" y="2305.9" class="st5" width="888.4" height="1342.2"/>
	</g>
	<g id="LWPOLYLINE_12_" class="st1">
		<polyline class="st5" points="6660.3,394 8342.3,394 8342.3,1509.4 8342.3,1509.4 8342.3,1509.4 6660.3,1509.4 6660.3,394 		"/>
	</g>
	<g id="LWPOLYLINE_13_" class="st1">
		<rect x="2029.2" y="1622.8" class="st5" width="2006.9" height="683.1"/>
	</g>
	<g id="LWPOLYLINE_14_" class="st1">
		<polyline class="st5" points="526.9,2637.6 1541.7,2637.6 1541.7,4329.5 526.9,4329.5 526.9,2637.6 		"/>
	</g>
	<g id="LWPOLYLINE_15_" class="st1">
		<polyline class="st5" points="2029.2,1466.9 2029.2,1466.9 2029.2,2305.9 1541.7,2305.9 1541.7,1466.9 1541.7,1466.9 
			1541.7,1466.9 2029.2,1466.9 		"/>
	</g>
</g>
<g id="ActiveReader" class="st0">
	<g id="CIRCLE_6_" class="st1">
		<circle class="st6" cx="1850.1" cy="1896.7" r="28.3"/>
	</g>
	<g id="CIRCLE_7_" class="st1">
		<circle class="st6" cx="5766.7" cy="4012" r="28.3"/>
	</g>
	<g id="CIRCLE_8_" class="st1">
		<circle class="st6" cx="4788.5" cy="3695.8" r="28.3"/>
	</g>
	<g id="CIRCLE_9_" class="st1">
		<circle class="st6" cx="2405.4" cy="3134.2" r="28.3"/>
	</g>
</g>
<g id="BusinessLocation" class="st0">
	<g id="LWPOLYLINE_16_" class="st1">
		<rect x="2029.2" y="1622.8" class="st7" width="2006.9" height="683.1"/>
	</g>
	<g id="LWPOLYLINE_17_" class="st1">
		<polyline class="st7" points="6660.3,394 8342.3,394 8342.3,1509.4 8342.3,1509.4 8342.3,1509.4 6660.3,1509.4 6660.3,394 		"/>
	</g>
	<g id="LWPOLYLINE_18_" class="st1">
		<rect x="4360.7" y="394" class="st7" width="806.5" height="430.9"/>
	</g>
	<g id="LWPOLYLINE_19_" class="st1">
		<rect x="4360.7" y="824.8" class="st7" width="806.5" height="813.5"/>
	</g>
	<g id="LWPOLYLINE_20_" class="st1">
		<rect x="4338" y="1880.7" class="st7" width="829.1" height="425.2"/>
	</g>
	<g id="LWPOLYLINE_21_" class="st1">
		<polyline class="st7" points="526.9,2637.6 1541.7,2637.6 1541.7,2305.9 2029.2,2305.9 2029.2,1622.8 2029.2,1622.8 
			2029.2,1466.9 1541.4,1466.9 1541.4,1638.4 526.9,1638.4 526.9,2637.6 		"/>
	</g>
	<g id="LWPOLYLINE_22_" class="st1">
		<polyline class="st7" points="526.9,2637.6 1541.7,2637.6 1541.7,4329.5 1541.7,4329.5 1541.7,4329.5 526.9,4329.9 526.9,2637.6 
					"/>
	</g>
	<g id="LWPOLYLINE_23_" class="st1">
		<polyline class="st7" points="1541.7,2305.9 6307.3,2305.9 6307.3,1509.4 7055.7,1509.4 7055.7,4157 1541.7,4329.5 1541.7,4329.5 
			1541.7,4329.5 1541.7,2305.9 		"/>
	</g>
	<g id="LWPOLYLINE_24_" class="st1">
		<rect x="6067.2" y="394" class="st7" width="593.2" height="1115.4"/>
	</g>
	<g id="LWPOLYLINE_25_" class="st1">
		<polyline class="st7" points="5167.2,394 6067.2,394 6067.2,1509.4 6307.3,1509.4 6307.3,2305.9 5167.2,2305.9 5167.2,394 		"/>
	</g>
	<g id="LWPOLYLINE_26_" class="st1">
		<polyline class="st7" points="7055.7,1509.4 8962.5,1509.4 8907.5,2386 7055.7,2386 7055.7,1509.4 		"/>
	</g>
	<g id="LWPOLYLINE_27_" class="st1">
		<polyline class="st7" points="7055.7,2386 8907.5,2386 8826.4,3244.7 7055.7,3244.7 7055.7,2386 		"/>
	</g>
	<g id="LWPOLYLINE_28_" class="st1">
		<polyline class="st7" points="7055.7,3244.7 8826.4,3244.7 8759.5,3810.2 8666.6,3984.2 8544.8,4057.9 7055.7,4157 7055.7,3244.7 
					"/>
	</g>
	<g id="LWPOLYLINE_29_" class="st1">
		<polyline class="st7" points="4036.1,1638.4 5167.2,1638.4 5167.2,1880.7 4338,1880.7 4338,2305.9 4036.1,2305.9 4036.1,1638.4 		
			"/>
	</g>
</g>
<g id="Navigation" class="st0">
	<g id="LWPOLYLINE_30_" class="st1">
		<polyline class="st8" points="1778.6,1800.8 1778.6,2567.4 4189.7,2567.4 4189.7,1760.6 4705.5,1760.6 		"/>
	</g>
	<g id="LWPOLYLINE_31_" class="st1">
		<line class="st8" x1="1778.6" y1="2567.4" x2="1778.6" y2="2796.3"/>
	</g>
	<g id="CIRCLE_10_" class="st1">
		<circle class="st8" cx="1482.9" cy="2748.1" r="33.9"/>
	</g>
	<g id="CIRCLE_11_" class="st1">
		<circle class="st8" cx="3214.9" cy="2255.7" r="33.9"/>
	</g>
	<g id="CIRCLE_12_" class="st1">
		<circle class="st8" cx="4719" cy="1588.4" r="33.9"/>
	</g>
	<g id="CIRCLE_13_" class="st1">
		<circle class="st8" cx="4715.6" cy="1932.3" r="33.9"/>
	</g>
	<g id="CIRCLE_14_" class="st1">
		<circle class="st8" cx="6462.5" cy="1459.6" r="33.9"/>
	</g>
	<g id="CIRCLE_15_" class="st1">
		<circle class="st8" cx="7111" cy="2244.4" r="33.9"/>
	</g>
	<g id="CIRCLE_16_" class="st1">
		<circle class="st8" cx="7121" cy="3114.8" r="33.9"/>
	</g>
	<g id="CIRCLE_17_" class="st1">
		<circle class="st8" cx="7112.6" cy="3346.6" r="33.9"/>
	</g>
</g>
<g id="LFZone" class="st0">
	<g id="LWPOLYLINE_32_" class="st1">
		<rect x="2029.2" y="1622.8" class="st9" width="2006.9" height="683.1"/>
	</g>
	<g id="LWPOLYLINE_33_" class="st1">
		<polyline class="st9" points="526.9,2637.6 1541.7,2637.6 1541.7,4329.5 1541.7,4329.5 1541.7,4329.5 526.9,4329.5 526.9,2637.6 
					"/>
	</g>
	<g id="LWPOLYLINE_34_" class="st1">
		<polyline class="st9" points="1541.7,1466.9 2029.2,1466.9 2029.2,2305.9 2029.2,2305.9 6307.3,2305.9 6307.3,1509.4 
			7055.7,1509.4 7055.7,4157 1541.7,4329.5 1541.7,4329.5 1541.7,4329.5 1541.7,1466.9 		"/>
	</g>
	<g id="LWPOLYLINE_35_" class="st1">
		<polyline class="st9" points="7055.7,1509.4 8962.5,1509.4 8907.5,2386 7055.7,2386 7055.7,1509.4 		"/>
	</g>
	<g id="LWPOLYLINE_36_" class="st1">
		<polyline class="st9" points="7055.7,2386 8907.5,2386 8826.4,3244.7 7055.7,3244.7 7055.7,2386 		"/>
	</g>
	<g id="LWPOLYLINE_37_" class="st1">
		<polyline class="st9" points="7055.7,3244.7 8826.4,3244.7 8759.5,3810.2 8666.6,3984.2 8544.8,4057.9 7055.7,4157 7055.7,3244.7 
					"/>
	</g>
	<g id="LWPOLYLINE_38_" class="st1">
		<rect x="1541.7" y="873" class="st9" width="487.6" height="593.9"/>
	</g>
	<g id="LWPOLYLINE_39_" class="st1">
		<polyline class="st9" points="6660.3,394 8342.3,394 8342.3,1509.4 6660.3,1509.4 6660.3,394 		"/>
	</g>
	<g id="LWPOLYLINE_40_" class="st1">
		<rect x="6067.2" y="394" class="st9" width="593.1" height="1115.4"/>
	</g>
	<g id="LWPOLYLINE_41_" class="st1">
		<polyline class="st9" points="5167.2,394 6067.2,394 6067.2,1509.4 6307.3,1509.4 6307.3,2305.9 5167.2,2305.9 5167.2,394 		"/>
	</g>
</g>
<g id="PassiveZone" class="st0">
	<g id="LWPOLYLINE_42_" class="st1">
		<polygon class="st3" points="1541.7,873 2029.2,873 2029.2,1466.9 1541.7,1466.9 		"/>
	</g>
	<g id="LWPOLYLINE_43_" class="st1">
		<polyline class="st3" points="6660.3,394 9032.4,394 8962.5,1509.4 6660.3,1509.4 6660.3,394 		"/>
	</g>
	<g id="LWPOLYLINE_44_" class="st1">
		<polyline class="st3" points="1541.7,1466.9 1541.7,1638.4 526.9,1638.4 526.9,4329.9 1541.7,4329.5 7055.7,4157 8544.8,4057.9 
			8666.6,3984.2 8759.5,3810.2 8826.4,3244.7 8907.5,2386 8962.5,1509.4 6660.3,1509.4 6660.3,394 4360.7,394 4360.7,1622.8 
			2029.2,1622.8 2029.2,1466.9 1541.7,1466.9 		"/>
	</g>
</g>
<g id="RSSIZone" class="st0">
	<g id="LWPOLYLINE_45_" class="st1">
		<polyline class="st10" points="5167.2,394 9032.4,394 8962.5,1509.4 8907.5,2388.1 8826.4,3244.7 8759.5,3810.2 8666.6,3984.2 
			8544.8,4057.9 7055.7,4157 4560.7,4235.1 4560.7,1622.8 5167.2,1622.8 5167.2,394 		"/>
	</g>
	<g id="LWPOLYLINE_46_" class="st1">
		<polyline class="st10" points="4560.7,1622.8 2029.2,1622.8 2029.2,1466.9 1541.7,1466.9 1541.7,1638.4 526.9,1638.4 
			526.9,4329.9 1541.7,4329.5 4560.7,4235.1 4560.7,1622.8 		"/>
	</g>
</g>
<g id="_x30_0_x5F_Plan">
	<g id="LWPOLYLINE_47_">
		<polyline class="st11" points="8342.3,394 9032.4,394 8962.5,1509.4 8574.4,1509.4 8574.4,1350.7 8342.3,1350.7 8342.3,394 		"/>
	</g>
	<g id="LWPOLYLINE_48_">
		<polyline class="st11" points="7055.7,1509.4 8316.5,1509.4 8316.5,1638.4 8574.4,1638.4 8574.4,1509.4 8962.5,1509.4 
			8907.5,2386 7055.7,2386 7055.7,1509.4 		"/>
	</g>
	<g id="LWPOLYLINE_49_">
		<polyline class="st11" points="7055.7,2386 7055.7,3244.7 8826.4,3244.7 8907.5,2386 7055.7,2386 7055.7,3244.7 		"/>
	</g>
	<g id="LWPOLYLINE_50_">
		<polyline class="st11" points="7055.7,3244.7 7055.7,4157 8544.8,4057.9 8666.6,3984.2 8759.5,3810.2 8826.4,3244.7 
			7055.7,3244.7 		"/>
	</g>
	<g id="LWPOLYLINE_51_">
		<polyline class="st11" points="1541.7,2305.9 6307.3,2305.9 6307.3,1509.4 7055.7,1509.4 7055.7,4157 1541.7,4329.5 
			1541.7,3906.1 1771.3,3906.1 1771.3,3648.1 1541.7,3648.1 1541.7,2305.9 		"/>
	</g>
	<g id="LWPOLYLINE_52_">
		<polyline class="st11" points="1541.7,2637.6 526.9,2637.6 526.9,4329.9 1541.7,4329.5 1541.7,3906.1 1513.3,3906.1 
			1513.3,3648.1 1541.7,3648.1 1541.7,2637.6 		"/>
	</g>
	<g id="LWPOLYLINE_53_">
		<polyline class="st11" points="4036.1,1638.4 5167.2,1638.4 5167.2,1880.7 4338,1880.7 4338,2305.9 4036.1,2305.9 4036.1,1638.4 
					"/>
	</g>
	<g id="LWPOLYLINE_54_">
		<polyline class="st11" points="526.9,1638.4 1541.4,1638.4 1541.5,1466.9 2029.2,1466.9 2029.2,1622.8 2029.2,1622.8 
			2029.2,2305.9 1541.7,2305.9 1541.7,2637.6 526.9,2637.6 526.9,1638.4 		"/>
	</g>
	<g id="LWPOLYLINE_55_">
		<polyline class="st11" points="2029.2,1622.8 4036.1,1622.8 4036.1,1638.4 4036.1,2305.9 2029.2,2305.9 2029.2,1622.8 		"/>
	</g>
	<g id="LWPOLYLINE_56_">
		<rect x="4360.7" y="394" class="st11" width="806.5" height="430.9"/>
	</g>
	<g id="LWPOLYLINE_57_">
		<rect x="4360.7" y="824.8" class="st11" width="806.5" height="813.5"/>
	</g>
	<g id="LWPOLYLINE_58_">
		<polyline class="st11" points="5167.2,394 6067.2,394 6067.2,1380.4 6048.7,1380.4 6048.7,1638.4 6307.3,1638.4 6307.3,2305.9 
			5167.2,2305.9 5167.2,394 		"/>
	</g>
	<g id="LWPOLYLINE_59_">
		<rect x="4338" y="1880.7" class="st11" width="829.1" height="425.2"/>
	</g>
	<g id="LWPOLYLINE_60_">
		<polyline class="st11" points="6067.2,394 6660.3,394 6660.3,1509.4 6307.3,1509.4 6306.7,1380.4 6067.2,1380.4 6067.2,394 		"/>
	</g>
	<g id="LWPOLYLINE_61_">
		<polyline class="st11" points="6660.3,394 8342.3,394 8342.3,1350.7 8316.5,1350.7 8316.5,1509.4 6660.3,1509.4 6660.3,394 		"/>
	</g>
	<g id="LWPOLYLINE_62_">
		<polyline class="st11" points="3798.5,3906.1 4056.5,3906.1 4056.5,3648.1 3798.5,3648.1 3798.5,3906.1 		"/>
	</g>
	<g id="LWPOLYLINE_63_">
		<polyline class="st11" points="6049.3,3906.1 6307.3,3906.1 6307.3,3648.1 6049.3,3648.1 6049.3,3906.1 		"/>
	</g>
</g>
<g id="Layout" class="st0">
	<g id="LWPOLYLINE_64_" class="st1">
		<polygon class="st12" points="-3126,6950.8 -3121.9,-2979.2 12469.3,-2979.2 12469.3,6954.4 		"/>
	</g>
</g>
<g id="Locator" class="st0">
	<g id="CIRCLE_18_" class="st1">
		<circle class="st13" cx="3269.3" cy="1966.1" r="30.5"/>
	</g>
	<g id="CIRCLE_19_" class="st1">
		<circle class="st13" cx="1786.7" cy="1195.9" r="30.5"/>
	</g>
	<g id="CIRCLE_20_" class="st1">
		<circle class="st13" cx="1777.5" cy="2040.5" r="30.5"/>
	</g>
	<g id="CIRCLE_21_" class="st1">
		<circle class="st13" cx="1027.9" cy="3472" r="30.5"/>
	</g>
	<g id="CIRCLE_22_" class="st1">
		<circle class="st13" cx="3012.5" cy="2539.1" r="30.5"/>
	</g>
	<g id="CIRCLE_23_" class="st1">
		<circle class="st13" cx="6374.6" cy="1209.6" r="30.5"/>
	</g>
	<g id="CIRCLE_24_" class="st1">
		<circle class="st13" cx="6972.2" cy="952.7" r="30.5"/>
	</g>
	<g id="CIRCLE_25_" class="st1">
		<circle class="st13" cx="7891.7" cy="2017.4" r="30.5"/>
	</g>
	<g id="CIRCLE_26_" class="st1">
		<circle class="st13" cx="7873.4" cy="2897.7" r="30.5"/>
	</g>
	<g id="CIRCLE_27_" class="st1">
		<circle class="st13" cx="7881" cy="3808.5" r="30.5"/>
	</g>
</g>
</svg>
